C:\GBW_MyPrograms\KinderuniversiteitApp\Resultaten\mars_sim2\Aarde\Aarde_v1.mot
version=1
nRows=8
nColumns=29
inDegrees=yes
endheader
                time	         pelvis_tilt	           pelvis_tx	           pelvis_ty	       hip_flexion_l	       hip_flexion_r	        knee_angle_l	        knee_angle_r	       ankle_angle_l	       ankle_angle_r	    lumbar_extension	hamstrings_r/activation	bifemsh_r/activation	glut_max_r/activation	iliopsoas_r/activation	rect_fem_r/activation	  vasti_r/activation	gastroc_r/activation	 soleus_r/activation	tib_ant_r/activation	hamstrings_l/activation	bifemsh_l/activation	glut_max_l/activation	iliopsoas_l/activation	rect_fem_l/activation	  vasti_l/activation	gastroc_l/activation	 soleus_l/activation	tib_ant_l/activation	
          0.92529924	         -8.16503024	          1.21602200	          0.89554612	         -8.85958791	         31.68826791	        -11.00677503	        -12.54673063	          3.84830059	         10.61111129	          0.96531788	          0.32215035	          0.12063272	          0.15759396	          0.08620995	          0.11024391	          0.08971118	          0.07776347	          0.08004700	          0.32947674	          0.06614045	          0.15869636	          0.08762466	          0.72653555	          0.23121904	          0.06948097	          0.22299120	          0.26603798	          0.05209228	
          0.93455223	         -8.21291241	          1.23087338	          0.89456346	         -8.60327505	         31.07480623	        -13.03619920	        -12.28653632	          3.06723870	         10.52598912	          1.32466958	          0.30583073	          0.14802666	          0.16233551	          0.07735652	          0.09837274	          0.11420678	          0.07702394	          0.07443013	          0.35213682	          0.06711247	          0.14351142	          0.09016545	          0.67899834	          0.20596490	          0.06562543	          0.19366378	          0.23311876	          0.05168472	
          0.94380522	         -8.25854314	          1.24588404	          0.89349984	         -8.13202031	         30.42097753	        -15.45196950	        -12.61271484	          2.15901337	         10.35299722	          1.70380553	          0.27066506	          0.16481989	          0.18375192	          0.06922219	          0.08742005	          0.15163661	          0.08756060	          0.08297527	          0.32121514	          0.07355767	          0.13018283	          0.09844232	          0.60419992	          0.18303851	          0.06294452	          0.16814109	          0.20255448	          0.05144088	
          0.95305822	         -8.30315515	          1.26089608	          0.89249128	         -7.44189280	         29.69513528	        -18.20697640	        -13.01825781	          0.99529658	         10.23161969	          2.08377950	          0.23679753	          0.17183526	          0.21612799	          0.06217032	          0.07828778	          0.20195247	          0.07841818	          0.07354616	          0.38429626	          0.07359658	          0.11867809	          0.10801020	          0.53509456	          0.16744817	          0.06939627	          0.14599975	          0.17576996	          0.05615754	
          0.96231121	         -8.34906481	          1.27564097	          0.89176214	         -6.53769595	         28.98729277	        -21.22725397	        -13.39927847	         -0.44342650	         10.00771055	          2.43238015	          0.20719601	          0.15997199	          0.25891943	          0.05610078	          0.07223493	          0.27517701	          0.07215919	          0.06892887	          0.38834815	          0.07351864	          0.11057184	          0.09590196	          0.46881232	          0.16014605	          0.06698767	          0.12687847	          0.15251361	          0.25498178	
          0.97156420	         -8.39634069	          1.28988640	          0.89138564	         -5.45868788	         28.37316187	        -24.38220340	        -13.89237039	         -1.61334466	          9.87162710	          2.72003553	          0.18139877	          0.14967215	          0.27051457	          0.05476038	          0.07128907	          0.33691235	          0.06719911	          0.06495931	          0.40550754	          0.07343097	          0.11104303	          0.08439320	          0.41079327	          0.23206266	          0.06030473	          0.11176532	          0.13274222	          0.23820801	
          0.98081719	         -8.44481619	          1.30358817	          0.89141326	         -4.29273589	         27.81991174	        -27.36380315	        -14.42892157	         -1.74452956	          9.77737247	          2.94139605	          0.16008769	          0.14493087	          0.25667265	          0.05723626	          0.07326547	          0.37689949	          0.06594634	          0.06491026	          0.40344302	          0.07957538	          0.12963111	          0.07428906	          0.35911726	          0.24600310	          0.05433834	          0.09983753	          0.11561690	          0.30939484	
          0.99007019	         -8.49323433	          1.31683322	          0.89191566	         -3.07382095	         27.25591024	        -30.07957262	        -14.89360105	         -1.50731470	          9.71780951	          3.10665152	          0.14427092	          0.14492549	          0.24123197	          0.05820290	          0.07294015	          0.38674924	          0.06663982	          0.06594355	          0.40332637	          0.09400320	          0.15938391	          0.06576005	          0.31383135	          0.28288741	          0.05219370	          0.09473953	          0.10106841	          0.30622301	
